<svg version="1.1" xmlns="http://www.w3.org/2000/svg" xmlns:xlink="http://www.w3.org/1999/xlink" width="709" height="412"><defs/><g><g><rect fill="#C0C0C0" stroke="none" x="79" y="47" width="688" height="392" transform="matrix(1 0 0 1 -62 -30)" fill-opacity="0.2"/></g><g><rect fill="#ffffff" stroke="none" x="72" y="40" width="688" height="392" transform="matrix(1 0 0 1 -62 -30)"/></g><g><path fill="none" stroke="#000000" paint-order="fill stroke markers" d=" M 10 10 L 698 10 L 698 402 L 10 402 L 10 10 Z Z" stroke-miterlimit="10" stroke-dasharray=""/></g><g><g><path fill="none" stroke="none"/><text fill="#000000" stroke="none" font-family="Arial" font-size="13px" font-style="normal" font-weight="bold" text-decoration="undefined" x="416.5" y="53.5" text-anchor="middle" dominant-baseline="central" transform="matrix(1 0 0 1 -62 -30)">publicateur</text></g></g><g><path fill="none" stroke="#000000" paint-order="fill stroke markers" d=" M 186 66 L 682 66 L 682 370 L 186 370 L 186 66" stroke-miterlimit="10" stroke-dasharray=""/></g><g><path fill="#ffffff" stroke="none" paint-order="stroke fill markers" d=" M 186 66 L 186 89 L 202 89 L 213.5 77.5 L 213.5 66 L 186 66"/></g><g><path fill="none" stroke="#000000" paint-order="fill stroke markers" d=" M 186 66 L 186 89 L 202 89 L 213.5 77.5 L 213.5 66 L 186 66 L 186 66" stroke-miterlimit="10" stroke-dasharray=""/></g><g><g><path fill="none" stroke="none"/><text fill="#000000" stroke="none" font-family="Arial" font-size="13px" font-style="normal" font-weight="normal" text-decoration="undefined" x="259" y="107.5" text-anchor="middle" dominant-baseline="central" transform="matrix(1 0 0 1 -62 -30)"></text></g></g><g><g><path fill="none" stroke="none"/><text fill="#000000" stroke="none" font-family="Arial" font-size="13px" font-style="normal" font-weight="bold" text-decoration="undefined" x="253" y="107.5" text-anchor="middle" dominant-baseline="central" transform="matrix(1 0 0 1 -62 -30)"></text></g></g><g><path fill="#C0C0C0" stroke="none" paint-order="stroke fill markers" d=" M 241 138.5 C 241 128.835016 286.2192352 121 342 121 C 397.7807648 121 443 128.835016 443 138.5 C 443 148.164984 397.7807648 156 342 156 C 286.2192352 156 241 148.164984 241 138.5 Z" fill-opacity="0.2"/></g><g><path fill="#ffffff" stroke="none" paint-order="stroke fill markers" d=" M 234 131.5 C 234 121.835016 279.2192352 114 335 114 C 390.7807648 114 436 121.835016 436 131.5 C 436 141.164984 390.7807648 149 335 149 C 279.2192352 149 234 141.164984 234 131.5 Z"/></g><g><path fill="none" stroke="#000000" paint-order="fill stroke markers" d=" M 234 131.5 C 234 121.835016 279.2192352 114 335 114 C 390.7807648 114 436 121.835016 436 131.5 C 436 141.164984 390.7807648 149 335 149 C 279.2192352 149 234 141.164984 234 131.5 Z" stroke-miterlimit="10" stroke-dasharray=""/></g><g><g><path fill="none" stroke="none"/><text fill="#000000" stroke="none" font-family="Arial" font-size="13px" font-style="normal" font-weight="bold" text-decoration="undefined" x="397" y="162.5" text-anchor="middle" dominant-baseline="central" transform="matrix(1 0 0 1 -62 -30)">publier un annonce</text></g></g><g><path fill="#C0C0C0" stroke="none" paint-order="stroke fill markers" d=" M 244 226.5 C 244 216.835016 287.8760896 209 342 209 C 396.1239104 209 440 216.835016 440 226.5 C 440 236.164984 396.1239104 244 342 244 C 287.8760896 244 244 236.164984 244 226.5 Z" fill-opacity="0.2"/></g><g><path fill="#ffffff" stroke="none" paint-order="stroke fill markers" d=" M 237 219.5 C 237 209.835016 280.8760896 202 335 202 C 389.1239104 202 433 209.835016 433 219.5 C 433 229.164984 389.1239104 237 335 237 C 280.8760896 237 237 229.164984 237 219.5 Z"/></g><g><path fill="none" stroke="#000000" paint-order="fill stroke markers" d=" M 237 219.5 C 237 209.835016 280.8760896 202 335 202 C 389.1239104 202 433 209.835016 433 219.5 C 433 229.164984 389.1239104 237 335 237 C 280.8760896 237 237 229.164984 237 219.5 Z" stroke-miterlimit="10" stroke-dasharray=""/></g><g><g><path fill="none" stroke="none"/><text fill="#000000" stroke="none" font-family="Arial" font-size="13px" font-style="normal" font-weight="bold" text-decoration="undefined" x="397" y="250.5" text-anchor="middle" dominant-baseline="central" transform="matrix(1 0 0 1 -62 -30)">modifier un annonce</text></g></g><g><path fill="#C0C0C0" stroke="none" paint-order="stroke fill markers" d=" M 241 306.5 C 241 296.835016 288.4578112 289 347 289 C 405.5421888 289 453 296.835016 453 306.5 C 453 316.164984 405.5421888 324 347 324 C 288.4578112 324 241 316.164984 241 306.5 Z" fill-opacity="0.2"/></g><g><path fill="#ffffff" stroke="none" paint-order="stroke fill markers" d=" M 234 299.5 C 234 289.835016 281.4578112 282 340 282 C 398.5421888 282 446 289.835016 446 299.5 C 446 309.164984 398.5421888 317 340 317 C 281.4578112 317 234 309.164984 234 299.5 Z"/></g><g><path fill="none" stroke="#000000" paint-order="fill stroke markers" d=" M 234 299.5 C 234 289.835016 281.4578112 282 340 282 C 398.5421888 282 446 289.835016 446 299.5 C 446 309.164984 398.5421888 317 340 317 C 281.4578112 317 234 309.164984 234 299.5 Z" stroke-miterlimit="10" stroke-dasharray=""/></g><g><g><path fill="none" stroke="none"/><text fill="#000000" stroke="none" font-family="Arial" font-size="13px" font-style="normal" font-weight="bold" text-decoration="undefined" x="402" y="330.5" text-anchor="middle" dominant-baseline="central" transform="matrix(1 0 0 1 -62 -30)">supprimer un annonce</text></g></g><g><path fill="#ffffff" stroke="none" paint-order="stroke fill markers" d=" M 65.19271484375 163.85 C 65.19271484375 158.96227952 69.15051721174999 155 74.03271484375 155 C 78.91491247575001 155 82.87271484375 158.96227952 82.87271484375 163.85 C 82.87271484375 168.73772047999998 78.91491247575001 172.7 74.03271484375 172.7 C 69.15051721174999 172.7 65.19271484375 168.73772047999998 65.19271484375 163.85 Z"/></g><g><path fill="none" stroke="#000000" paint-order="fill stroke markers" d=" M 65.19271484375 163.85 C 65.19271484375 158.96227952 69.15051721174999 155 74.03271484375 155 C 78.91491247575001 155 82.87271484375 158.96227952 82.87271484375 163.85 C 82.87271484375 168.73772047999998 78.91491247575001 172.7 74.03271484375 172.7 C 69.15051721174999 172.7 65.19271484375 168.73772047999998 65.19271484375 163.85 Z" stroke-miterlimit="10" stroke-dasharray=""/></g><g><path fill="none" stroke="#000000" paint-order="fill stroke markers" d=" M 74.03271484375 172.7 L 74.03271484375 190.3" stroke-miterlimit="10" stroke-dasharray=""/></g><g><path fill="none" stroke="#000000" paint-order="fill stroke markers" d=" M 64.67271484375 179.3 L 83.39271484375001 179.3" stroke-miterlimit="10" stroke-dasharray=""/></g><g><path fill="none" stroke="#000000" paint-order="fill stroke markers" d=" M 74.03271484375 190.3 L 61.03271484375 208" stroke-miterlimit="10" stroke-dasharray=""/></g><g><path fill="none" stroke="#000000" paint-order="fill stroke markers" d=" M 74.03271484375 190.3 L 87.03271484375 208" stroke-miterlimit="10" stroke-dasharray=""/></g><g><g><path fill="none" stroke="none"/><text fill="#000000" stroke="none" font-family="Arial" font-size="13px" font-style="normal" font-weight="bold" text-decoration="undefined" x="136.53271484375" y="252.5" text-anchor="middle" dominant-baseline="central" transform="matrix(1 0 0 1 -62 -30)">publicateur</text></g></g><g><path fill="none" stroke="#000000" paint-order="fill stroke markers" d=" M 115 184 L 256 150" stroke-miterlimit="10" stroke-dasharray=""/></g><g><path fill="none" stroke="#000000" paint-order="fill stroke markers" d=" M 115 198 L 236 210" stroke-miterlimit="10" stroke-dasharray=""/></g><g><path fill="none" stroke="#000000" paint-order="fill stroke markers" d=" M 115 210 L 294 281" stroke-miterlimit="10" stroke-dasharray=""/></g><g><path fill="#C0C0C0" stroke="none" paint-order="stroke fill markers" d=" M 553 226.5 C 553 216.835016 581.6537728 209 617 209 C 652.3462272 209 681 216.835016 681 226.5 C 681 236.164984 652.3462272 244 617 244 C 581.6537728 244 553 236.164984 553 226.5 Z" fill-opacity="0.2"/></g><g><path fill="#ffffff" stroke="none" paint-order="stroke fill markers" d=" M 546 219.5 C 546 209.835016 574.6537728 202 610 202 C 645.3462272 202 674 209.835016 674 219.5 C 674 229.164984 645.3462272 237 610 237 C 574.6537728 237 546 229.164984 546 219.5 Z"/></g><g><path fill="none" stroke="#000000" paint-order="fill stroke markers" d=" M 546 219.5 C 546 209.835016 574.6537728 202 610 202 C 645.3462272 202 674 209.835016 674 219.5 C 674 229.164984 645.3462272 237 610 237 C 574.6537728 237 546 229.164984 546 219.5 Z" stroke-miterlimit="10" stroke-dasharray=""/></g><g><g><path fill="none" stroke="none"/><text fill="#000000" stroke="none" font-family="Arial" font-size="13px" font-style="normal" font-weight="bold" text-decoration="undefined" x="672" y="250.5" text-anchor="middle" dominant-baseline="central" transform="matrix(1 0 0 1 -62 -30)">s'authentifier</text></g></g><g><path fill="none" stroke="#000000" paint-order="fill stroke markers" d=" M 394 150 L 554 201" stroke-miterlimit="10" stroke-dasharray="3"/></g><g><path fill="none" stroke="#000000" paint-order="fill stroke markers" d=" M 543.0389056624791 201.9243435097237 L 554 201 L 545.5957263008421 193.90294542858496" stroke-miterlimit="10" stroke-dasharray=""/></g><g><rect fill="#ffffff" stroke="none" x="518" y="170" width="55.65625" height="13" transform="matrix(1 0 0 1 -62 -30)"/></g><g><g><path fill="none" stroke="none"/><text fill="#000000" stroke="none" font-family="Arial" font-size="13px" font-style="normal" font-weight="normal" text-decoration="undefined" x="545.828125" y="176.5" text-anchor="middle" dominant-baseline="central" transform="matrix(1 0 0 1 -62 -30)">«include»</text></g></g><g><path fill="none" stroke="#000000" paint-order="fill stroke markers" d=" M 434 219 L 545 219" stroke-miterlimit="10" stroke-dasharray="3"/></g><g><path fill="none" stroke="#000000" paint-order="fill stroke markers" d=" M 534.8373251423759 223.209517756016 L 545 219 L 534.8373251423758 214.790482243984" stroke-miterlimit="10" stroke-dasharray=""/></g><g><rect fill="#ffffff" stroke="none" x="524" y="213" width="55.65625" height="13" transform="matrix(1 0 0 1 -62 -30)"/></g><g><g><path fill="none" stroke="none"/><text fill="#000000" stroke="none" font-family="Arial" font-size="13px" font-style="normal" font-weight="normal" text-decoration="undefined" x="551.828125" y="219.5" text-anchor="middle" dominant-baseline="central" transform="matrix(1 0 0 1 -62 -30)">«include»</text></g></g><g><path fill="none" stroke="#000000" paint-order="fill stroke markers" d=" M 401 281 L 546 238" stroke-miterlimit="10" stroke-dasharray="3"/></g><g><path fill="none" stroke="#000000" paint-order="fill stroke markers" d=" M 537.453547170169 244.9251818768517 L 546 238 L 535.0599021828635 236.85358831500758" stroke-miterlimit="10" stroke-dasharray=""/></g><g><rect fill="#ffffff" stroke="none" x="499" y="254" width="55.65625" height="13" transform="matrix(1 0 0 1 -62 -30)"/></g><g><g><path fill="none" stroke="none"/><text fill="#000000" stroke="none" font-family="Arial" font-size="13px" font-style="normal" font-weight="normal" text-decoration="undefined" x="526.828125" y="260.5" text-anchor="middle" dominant-baseline="central" transform="matrix(1 0 0 1 -62 -30)">«include»</text></g></g></g></svg>