<svg version="1.1" xmlns="http://www.w3.org/2000/svg" xmlns:xlink="http://www.w3.org/1999/xlink" width="1325" height="1300"><defs/><g><g><rect fill="#C0C0C0" stroke="none" x="327" y="63" width="1304" height="1280" transform="matrix(1 0 0 1 -310 -46)" fill-opacity="0.2"/></g><g><rect fill="#ffffff" stroke="none" x="320" y="56" width="1304" height="1280" transform="matrix(1 0 0 1 -310 -46)"/></g><g><path fill="none" stroke="#000000" paint-order="fill stroke markers" d=" M 10 10 L 1314 10 L 1314 1290 L 10 1290 L 10 10 Z Z" stroke-miterlimit="10" stroke-dasharray=""/></g><g><g><path fill="none" stroke="none"/><text fill="#000000" stroke="none" font-family="Arial" font-size="13px" font-style="normal" font-weight="bold" text-decoration="undefined" x="972.5" y="69.5" text-anchor="middle" dominant-baseline="central" transform="matrix(1 0 0 1 -310 -46)">Utilisateur-acteur</text></g></g><g><path fill="none" stroke="#000000" paint-order="fill stroke markers" d=" M 250 50 L 1250 50 L 1250 1242 L 250 1242 L 250 50" stroke-miterlimit="10" stroke-dasharray=""/></g><g><path fill="#ffffff" stroke="none" paint-order="stroke fill markers" d=" M 250 50 L 250 73 L 266 73 L 277.5 61.5 L 277.5 50 L 250 50"/></g><g><path fill="none" stroke="#000000" paint-order="fill stroke markers" d=" M 250 50 L 250 73 L 266 73 L 277.5 61.5 L 277.5 50 L 250 50 L 250 50" stroke-miterlimit="10" stroke-dasharray=""/></g><g><g><path fill="none" stroke="none"/><text fill="#000000" stroke="none" font-family="Arial" font-size="13px" font-style="normal" font-weight="normal" text-decoration="undefined" x="571" y="107.5" text-anchor="middle" dominant-baseline="central" transform="matrix(1 0 0 1 -310 -46)"></text></g></g><g><g><path fill="none" stroke="none"/><text fill="#000000" stroke="none" font-family="Arial" font-size="13px" font-style="normal" font-weight="bold" text-decoration="undefined" x="565" y="107.5" text-anchor="middle" dominant-baseline="central" transform="matrix(1 0 0 1 -310 -46)"></text></g></g><g><path fill="#ffffff" stroke="none" paint-order="stroke fill markers" d=" M 93.94588867187503 507.85 C 93.94588867187503 502.96227952000004 97.90369103987501 499 102.785888671875 499 C 107.66808630387499 499 111.62588867187497 502.96227952000004 111.62588867187497 507.85 C 111.62588867187497 512.73772048 107.66808630387499 516.7 102.785888671875 516.7 C 97.90369103987501 516.7 93.94588867187503 512.73772048 93.94588867187503 507.85 Z"/></g><g><path fill="none" stroke="#000000" paint-order="fill stroke markers" d=" M 93.94588867187503 507.85 C 93.94588867187503 502.96227952000004 97.90369103987501 499 102.785888671875 499 C 107.66808630387499 499 111.62588867187497 502.96227952000004 111.62588867187497 507.85 C 111.62588867187497 512.73772048 107.66808630387499 516.7 102.785888671875 516.7 C 97.90369103987501 516.7 93.94588867187503 512.73772048 93.94588867187503 507.85 Z" stroke-miterlimit="10" stroke-dasharray=""/></g><g><path fill="none" stroke="#000000" paint-order="fill stroke markers" d=" M 102.785888671875 516.7 L 102.785888671875 534.3" stroke-miterlimit="10" stroke-dasharray=""/></g><g><path fill="none" stroke="#000000" paint-order="fill stroke markers" d=" M 93.42588867187499 523.3 L 112.14588867187501 523.3" stroke-miterlimit="10" stroke-dasharray=""/></g><g><path fill="none" stroke="#000000" paint-order="fill stroke markers" d=" M 102.785888671875 534.3 L 89.785888671875 552" stroke-miterlimit="10" stroke-dasharray=""/></g><g><path fill="none" stroke="#000000" paint-order="fill stroke markers" d=" M 102.785888671875 534.3 L 115.785888671875 552" stroke-miterlimit="10" stroke-dasharray=""/></g><g><g><path fill="none" stroke="none"/><text fill="#000000" stroke="none" font-family="Arial" font-size="13px" font-style="normal" font-weight="bold" text-decoration="undefined" x="413.285888671875" y="612.5" text-anchor="middle" dominant-baseline="central" transform="matrix(1 0 0 1 -310 -46)">Utilisateur</text></g></g><g><path fill="#C0C0C0" stroke="none" paint-order="stroke fill markers" d=" M 569 258.5 C 569 248.835016 647.1263024 241 743.5 241 C 839.8736976 241 918 248.835016 918 258.5 C 918 268.164984 839.8736976 276 743.5 276 C 647.1263024 276 569 268.164984 569 258.5 Z" fill-opacity="0.2"/></g><g><path fill="#ffffff" stroke="none" paint-order="stroke fill markers" d=" M 562 251.5 C 562 241.835016 640.1263024 234 736.5 234 C 832.8736976 234 911 241.835016 911 251.5 C 911 261.164984 832.8736976 269 736.5 269 C 640.1263024 269 562 261.164984 562 251.5 Z"/></g><g><path fill="none" stroke="#000000" paint-order="fill stroke markers" d=" M 562 251.5 C 562 241.835016 640.1263024 234 736.5 234 C 832.8736976 234 911 241.835016 911 251.5 C 911 261.164984 832.8736976 269 736.5 269 C 640.1263024 269 562 261.164984 562 251.5 Z" stroke-miterlimit="10" stroke-dasharray=""/></g><g><g><path fill="none" stroke="none"/><text fill="#000000" stroke="none" font-family="Arial" font-size="13px" font-style="normal" font-weight="bold" text-decoration="undefined" x="1046.5" y="298.5" text-anchor="middle" dominant-baseline="central" transform="matrix(1 0 0 1 -310 -46)">Consulter les informations d'un match</text></g></g><g><path fill="#C0C0C0" stroke="none" paint-order="stroke fill markers" d=" M 577 122.5 C 577 112.835016 651.5445808 105 743.5 105 C 835.4554192 105 910 112.835016 910 122.5 C 910 132.164984 835.4554192 140 743.5 140 C 651.5445808 140 577 132.164984 577 122.5 Z" fill-opacity="0.2"/></g><g><path fill="#ffffff" stroke="none" paint-order="stroke fill markers" d=" M 570 115.5 C 570 105.835016 644.5445808 98 736.5 98 C 828.4554192 98 903 105.835016 903 115.5 C 903 125.164984 828.4554192 133 736.5 133 C 644.5445808 133 570 125.164984 570 115.5 Z"/></g><g><path fill="none" stroke="#000000" paint-order="fill stroke markers" d=" M 570 115.5 C 570 105.835016 644.5445808 98 736.5 98 C 828.4554192 98 903 105.835016 903 115.5 C 903 125.164984 828.4554192 133 736.5 133 C 644.5445808 133 570 125.164984 570 115.5 Z" stroke-miterlimit="10" stroke-dasharray=""/></g><g><g><path fill="none" stroke="none"/><text fill="#000000" stroke="none" font-family="Arial" font-size="13px" font-style="normal" font-weight="bold" text-decoration="undefined" x="1046.5" y="162.5" text-anchor="middle" dominant-baseline="central" transform="matrix(1 0 0 1 -310 -46)">Consulter le calendtier des  matches</text></g></g><g><path fill="#C0C0C0" stroke="none" paint-order="stroke fill markers" d=" M 881 170.5 C 881 160.835016 946.5902768000001 153 1027.5 153 C 1108.4097232 153 1174 160.835016 1174 170.5 C 1174 180.164984 1108.4097232 188 1027.5 188 C 946.5902768000001 188 881 180.164984 881 170.5 Z" fill-opacity="0.2"/></g><g><path fill="#ffffff" stroke="none" paint-order="stroke fill markers" d=" M 874 163.5 C 874 153.835016 939.5902768000001 146 1020.5 146 C 1101.4097232 146 1167 153.835016 1167 163.5 C 1167 173.164984 1101.4097232 181 1020.5 181 C 939.5902768000001 181 874 173.164984 874 163.5 Z"/></g><g><path fill="none" stroke="#000000" paint-order="fill stroke markers" d=" M 874 163.5 C 874 153.835016 939.5902768000001 146 1020.5 146 C 1101.4097232 146 1167 153.835016 1167 163.5 C 1167 173.164984 1101.4097232 181 1020.5 181 C 939.5902768000001 181 874 173.164984 874 163.5 Z" stroke-miterlimit="10" stroke-dasharray=""/></g><g><g><path fill="none" stroke="none"/><text fill="#000000" stroke="none" font-family="Arial" font-size="13px" font-style="normal" font-weight="bold" text-decoration="undefined" x="1330.5" y="210.5" text-anchor="middle" dominant-baseline="central" transform="matrix(1 0 0 1 -310 -46)">Consulter les match précédents</text></g></g><g><path fill="#C0C0C0" stroke="none" paint-order="stroke fill markers" d=" M 601 194.5 C 601 184.835016 664.1278432 177 742 177 C 819.8721568000001 177 883 184.835016 883 194.5 C 883 204.164984 819.8721568000001 212 742 212 C 664.1278432 212 601 204.164984 601 194.5 Z" fill-opacity="0.2"/></g><g><path fill="#ffffff" stroke="none" paint-order="stroke fill markers" d=" M 594 187.5 C 594 177.835016 657.1278432 170 735 170 C 812.8721568000001 170 876 177.835016 876 187.5 C 876 197.164984 812.8721568000001 205 735 205 C 657.1278432 205 594 197.164984 594 187.5 Z"/></g><g><path fill="none" stroke="#000000" paint-order="fill stroke markers" d=" M 594 187.5 C 594 177.835016 657.1278432 170 735 170 C 812.8721568000001 170 876 177.835016 876 187.5 C 876 197.164984 812.8721568000001 205 735 205 C 657.1278432 205 594 197.164984 594 187.5 Z" stroke-miterlimit="10" stroke-dasharray=""/></g><g><g><path fill="none" stroke="none"/><text fill="#000000" stroke="none" font-family="Arial" font-size="13px" font-style="normal" font-weight="bold" text-decoration="undefined" x="1045" y="234.5" text-anchor="middle" dominant-baseline="central" transform="matrix(1 0 0 1 -310 -46)">Consulter les matches courant</text></g></g><g><path fill="#C0C0C0" stroke="none" paint-order="stroke fill markers" d=" M 289 178.5 C 289 168.835016 354.81413440000006 161 436 161 C 517.1858655999999 161 583 168.835016 583 178.5 C 583 188.164984 517.1858655999999 196 436 196 C 354.81413440000006 196 289 188.164984 289 178.5 Z" fill-opacity="0.2"/></g><g><path fill="#ffffff" stroke="none" paint-order="stroke fill markers" d=" M 282 171.5 C 282 161.835016 347.81413440000006 154 429 154 C 510.18586559999994 154 576 161.835016 576 171.5 C 576 181.164984 510.18586559999994 189 429 189 C 347.81413440000006 189 282 181.164984 282 171.5 Z"/></g><g><path fill="none" stroke="#000000" paint-order="fill stroke markers" d=" M 282 171.5 C 282 161.835016 347.81413440000006 154 429 154 C 510.18586559999994 154 576 161.835016 576 171.5 C 576 181.164984 510.18586559999994 189 429 189 C 347.81413440000006 189 282 181.164984 282 171.5 Z" stroke-miterlimit="10" stroke-dasharray=""/></g><g><g><path fill="none" stroke="none"/><text fill="#000000" stroke="none" font-family="Arial" font-size="13px" font-style="normal" font-weight="bold" text-decoration="undefined" x="739" y="218.5" text-anchor="middle" dominant-baseline="central" transform="matrix(1 0 0 1 -310 -46)">Consulter les matches de future</text></g></g><g><path fill="none" stroke="#000000" paint-order="fill stroke markers" d=" M 528 153 L 632 134" stroke-miterlimit="10" stroke-dasharray=""/></g><g><path fill="#FFFFFF" stroke="none" paint-order="stroke fill markers" d=" M 613.5186333526264 145.9347847423129 L 632 134 L 610.492533094756 129.3708675413384"/></g><g><path fill="none" stroke="#000000" paint-order="fill stroke markers" d=" M 613.5186333526264 145.9347847423129 L 632 134 L 610.492533094756 129.3708675413384 L 613.5186333526264 145.9347847423129" stroke-miterlimit="10" stroke-dasharray=""/></g><g><path fill="none" stroke="#000000" paint-order="fill stroke markers" d=" M 735 169 L 736 134" stroke-miterlimit="10" stroke-dasharray=""/></g><g><path fill="#FFFFFF" stroke="none" paint-order="stroke fill markers" d=" M 743.8351138811756 154.5575044805786 L 736 134 L 727.0039113342582 154.0766129792381"/></g><g><path fill="none" stroke="#000000" paint-order="fill stroke markers" d=" M 743.8351138811756 154.5575044805786 L 736 134 L 727.0039113342582 154.0766129792381 L 743.8351138811756 154.5575044805786" stroke-miterlimit="10" stroke-dasharray=""/></g><g><path fill="none" stroke="#000000" paint-order="fill stroke markers" d=" M 914 145 L 848 134" stroke-miterlimit="10" stroke-dasharray=""/></g><g><path fill="#FFFFFF" stroke="none" paint-order="stroke fill markers" d=" M 869.4328823711503 129.03698143621867 L 848 134 L 866.6647205466184 145.64595238340942"/></g><g><path fill="none" stroke="#000000" paint-order="fill stroke markers" d=" M 869.4328823711503 129.03698143621867 L 848 134 L 866.6647205466184 145.64595238340942 L 869.4328823711503 129.03698143621867" stroke-miterlimit="10" stroke-dasharray=""/></g><g><path fill="none" stroke="#000000" paint-order="fill stroke markers" d=" M 111 497 L 194 130 L 569 120" stroke-miterlimit="10" stroke-dasharray=""/></g><g><path fill="none" stroke="#000000" paint-order="fill stroke markers" d=" M 119 497 L 186 330 L 604 270" stroke-miterlimit="10" stroke-dasharray=""/></g><g><path fill="#C0C0C0" stroke="none" paint-order="stroke fill markers" d=" M 641 322.5 C 641 312.835016 687.5623808 305 745 305 C 802.4376192 305 849 312.835016 849 322.5 C 849 332.164984 802.4376192 340 745 340 C 687.5623808 340 641 332.164984 641 322.5 Z" fill-opacity="0.2"/></g><g><path fill="#ffffff" stroke="none" paint-order="stroke fill markers" d=" M 634 315.5 C 634 305.835016 680.5623808 298 738 298 C 795.4376192 298 842 305.835016 842 315.5 C 842 325.164984 795.4376192 333 738 333 C 680.5623808 333 634 325.164984 634 315.5 Z"/></g><g><path fill="none" stroke="#000000" paint-order="fill stroke markers" d=" M 634 315.5 C 634 305.835016 680.5623808 298 738 298 C 795.4376192 298 842 305.835016 842 315.5 C 842 325.164984 795.4376192 333 738 333 C 680.5623808 333 634 325.164984 634 315.5 Z" stroke-miterlimit="10" stroke-dasharray=""/></g><g><g><path fill="none" stroke="none"/><text fill="#000000" stroke="none" font-family="Arial" font-size="13px" font-style="normal" font-weight="bold" text-decoration="undefined" x="1048" y="362.5" text-anchor="middle" dominant-baseline="central" transform="matrix(1 0 0 1 -310 -46)">Consulter les profiles</text></g></g><g><path fill="#C0C0C0" stroke="none" paint-order="stroke fill markers" d=" M 417 402.5 C 417 392.835016 487.0674288 385 573.5 385 C 659.9325712 385 730 392.835016 730 402.5 C 730 412.164984 659.9325712 420 573.5 420 C 487.0674288 420 417 412.164984 417 402.5 Z" fill-opacity="0.2"/></g><g><path fill="#ffffff" stroke="none" paint-order="stroke fill markers" d=" M 410 395.5 C 410 385.835016 480.0674288 378 566.5 378 C 652.9325712 378 723 385.835016 723 395.5 C 723 405.164984 652.9325712 413 566.5 413 C 480.0674288 413 410 405.164984 410 395.5 Z"/></g><g><path fill="none" stroke="#000000" paint-order="fill stroke markers" d=" M 410 395.5 C 410 385.835016 480.0674288 378 566.5 378 C 652.9325712 378 723 385.835016 723 395.5 C 723 405.164984 652.9325712 413 566.5 413 C 480.0674288 413 410 405.164984 410 395.5 Z" stroke-miterlimit="10" stroke-dasharray=""/></g><g><g><path fill="none" stroke="none"/><text fill="#000000" stroke="none" font-family="Arial" font-size="13px" font-style="normal" font-weight="bold" text-decoration="undefined" x="876.5" y="442.5" text-anchor="middle" dominant-baseline="central" transform="matrix(1 0 0 1 -310 -46)">Consulter les profiles des equipes</text></g></g><g><path fill="#C0C0C0" stroke="none" paint-order="stroke fill markers" d=" M 777 402.5 C 777 392.835016 846.3958560000001 385 932 385 C 1017.6041439999999 385 1087 392.835016 1087 402.5 C 1087 412.164984 1017.6041439999999 420 932 420 C 846.3958560000001 420 777 412.164984 777 402.5 Z" fill-opacity="0.2"/></g><g><path fill="#ffffff" stroke="none" paint-order="stroke fill markers" d=" M 770 395.5 C 770 385.835016 839.3958560000001 378 925 378 C 1010.6041439999999 378 1080 385.835016 1080 395.5 C 1080 405.164984 1010.6041439999999 413 925 413 C 839.3958560000001 413 770 405.164984 770 395.5 Z"/></g><g><path fill="none" stroke="#000000" paint-order="fill stroke markers" d=" M 770 395.5 C 770 385.835016 839.3958560000001 378 925 378 C 1010.6041439999999 378 1080 385.835016 1080 395.5 C 1080 405.164984 1010.6041439999999 413 925 413 C 839.3958560000001 413 770 405.164984 770 395.5 Z" stroke-miterlimit="10" stroke-dasharray=""/></g><g><g><path fill="none" stroke="none"/><text fill="#000000" stroke="none" font-family="Arial" font-size="13px" font-style="normal" font-weight="bold" text-decoration="undefined" x="1235" y="442.5" text-anchor="middle" dominant-baseline="central" transform="matrix(1 0 0 1 -310 -46)">Consulter les profiles des joueurs</text></g></g><g><path fill="none" stroke="#000000" paint-order="fill stroke markers" d=" M 605 377 L 697 334" stroke-miterlimit="10" stroke-dasharray=""/></g><g><path fill="#FFFFFF" stroke="none" paint-order="stroke fill markers" d=" M 682.1514528363441 350.2333190422873 L 697 334 L 675.0218016338446 334.9791815857767"/></g><g><path fill="none" stroke="#000000" paint-order="fill stroke markers" d=" M 682.1514528363441 350.2333190422873 L 697 334 L 675.0218016338446 334.9791815857767 L 682.1514528363441 350.2333190422873" stroke-miterlimit="10" stroke-dasharray=""/></g><g><path fill="none" stroke="#000000" paint-order="fill stroke markers" d=" M 883 377 L 782 334" stroke-miterlimit="10" stroke-dasharray=""/></g><g><path fill="#FFFFFF" stroke="none" paint-order="stroke fill markers" d=" M 803.9989434898357 334.2156045709552 L 782 334 L 797.4031466664253 349.7080575747797"/></g><g><path fill="none" stroke="#000000" paint-order="fill stroke markers" d=" M 803.9989434898357 334.2156045709552 L 782 334 L 797.4031466664253 349.7080575747797 L 803.9989434898357 334.2156045709552" stroke-miterlimit="10" stroke-dasharray=""/></g><g><path fill="none" stroke="#000000" paint-order="fill stroke markers" d=" M 124 497 L 178 394 L 633 330" stroke-miterlimit="10" stroke-dasharray=""/></g><g><path fill="#C0C0C0" stroke="none" paint-order="stroke fill markers" d=" M 633 474.5 C 633 464.835016 685.606536 457 750.5 457 C 815.393464 457 868 464.835016 868 474.5 C 868 484.164984 815.393464 492 750.5 492 C 685.606536 492 633 484.164984 633 474.5 Z" fill-opacity="0.2"/></g><g><path fill="#ffffff" stroke="none" paint-order="stroke fill markers" d=" M 626 467.5 C 626 457.835016 678.606536 450 743.5 450 C 808.393464 450 861 457.835016 861 467.5 C 861 477.164984 808.393464 485 743.5 485 C 678.606536 485 626 477.164984 626 467.5 Z"/></g><g><path fill="none" stroke="#000000" paint-order="fill stroke markers" d=" M 626 467.5 C 626 457.835016 678.606536 450 743.5 450 C 808.393464 450 861 457.835016 861 467.5 C 861 477.164984 808.393464 485 743.5 485 C 678.606536 485 626 477.164984 626 467.5 Z" stroke-miterlimit="10" stroke-dasharray=""/></g><g><g><path fill="none" stroke="none"/><text fill="#000000" stroke="none" font-family="Arial" font-size="13px" font-style="normal" font-weight="bold" text-decoration="undefined" x="1053.5" y="514.5" text-anchor="middle" dominant-baseline="central" transform="matrix(1 0 0 1 -310 -46)">Consulter les classement</text></g></g><g><path fill="#C0C0C0" stroke="none" paint-order="stroke fill markers" d=" M 425 530.5 C 425 520.835016 500.44001119999996 513 593.5 513 C 686.5599888 513 762 520.835016 762 530.5 C 762 540.164984 686.5599888 548 593.5 548 C 500.44001119999996 548 425 540.164984 425 530.5 Z" fill-opacity="0.2"/></g><g><path fill="#ffffff" stroke="none" paint-order="stroke fill markers" d=" M 418 523.5 C 418 513.835016 493.44001119999996 506 586.5 506 C 679.5599888 506 755 513.835016 755 523.5 C 755 533.164984 679.5599888 541 586.5 541 C 493.44001119999996 541 418 533.164984 418 523.5 Z"/></g><g><path fill="none" stroke="#000000" paint-order="fill stroke markers" d=" M 418 523.5 C 418 513.835016 493.44001119999996 506 586.5 506 C 679.5599888 506 755 513.835016 755 523.5 C 755 533.164984 679.5599888 541 586.5 541 C 493.44001119999996 541 418 533.164984 418 523.5 Z" stroke-miterlimit="10" stroke-dasharray=""/></g><g><g><path fill="none" stroke="none"/><text fill="#000000" stroke="none" font-family="Arial" font-size="13px" font-style="normal" font-weight="bold" text-decoration="undefined" x="896.5" y="570.5" text-anchor="middle" dominant-baseline="central" transform="matrix(1 0 0 1 -310 -46)">Consulter le classement des equipes</text></g></g><g><path fill="#C0C0C0" stroke="none" paint-order="stroke fill markers" d=" M 801 538.5 C 801 528.835016 873.3060048 521 962.5 521 C 1051.6939952 521 1124 528.835016 1124 538.5 C 1124 548.164984 1051.6939952 556 962.5 556 C 873.3060048 556 801 548.164984 801 538.5 Z" fill-opacity="0.2"/></g><g><path fill="#ffffff" stroke="none" paint-order="stroke fill markers" d=" M 794 531.5 C 794 521.835016 866.3060048 514 955.5 514 C 1044.6939952 514 1117 521.835016 1117 531.5 C 1117 541.164984 1044.6939952 549 955.5 549 C 866.3060048 549 794 541.164984 794 531.5 Z"/></g><g><path fill="none" stroke="#000000" paint-order="fill stroke markers" d=" M 794 531.5 C 794 521.835016 866.3060048 514 955.5 514 C 1044.6939952 514 1117 521.835016 1117 531.5 C 1117 541.164984 1044.6939952 549 955.5 549 C 866.3060048 549 794 541.164984 794 531.5 Z" stroke-miterlimit="10" stroke-dasharray=""/></g><g><g><path fill="none" stroke="none"/><text fill="#000000" stroke="none" font-family="Arial" font-size="13px" font-style="normal" font-weight="bold" text-decoration="undefined" x="1265.5" y="578.5" text-anchor="middle" dominant-baseline="central" transform="matrix(1 0 0 1 -310 -46)">Consulter le classement des joueur</text></g></g><g><path fill="none" stroke="#000000" paint-order="fill stroke markers" d=" M 636 505 L 690 486" stroke-miterlimit="10" stroke-dasharray=""/></g><g><path fill="#FFFFFF" stroke="none" paint-order="stroke fill markers" d=" M 673.6211759475511 500.68789034064866 L 690 486 L 668.0325155834549 484.80432930584914"/></g><g><path fill="none" stroke="#000000" paint-order="fill stroke markers" d=" M 673.6211759475511 500.68789034064866 L 690 486 L 668.0325155834549 484.80432930584914 L 673.6211759475511 500.68789034064866" stroke-miterlimit="10" stroke-dasharray=""/></g><g><path fill="none" stroke="#000000" paint-order="fill stroke markers" d=" M 895 513 L 806 486" stroke-miterlimit="10" stroke-dasharray=""/></g><g><path fill="#FFFFFF" stroke="none" paint-order="stroke fill markers" d=" M 827.8941115764183 483.84410615304273 L 806 486 L 823.005921922442 499.95702760503843"/></g><g><path fill="none" stroke="#000000" paint-order="fill stroke markers" d=" M 827.8941115764183 483.84410615304273 L 806 486 L 823.005921922442 499.95702760503843 L 827.8941115764183 483.84410615304273" stroke-miterlimit="10" stroke-dasharray=""/></g><g><path fill="none" stroke="#000000" paint-order="fill stroke markers" d=" M 141 511 L 170 490 L 625 472" stroke-miterlimit="10" stroke-dasharray=""/></g><g><path fill="#C0C0C0" stroke="none" paint-order="stroke fill markers" d=" M 665 602.5 C 665 592.835016 710.4430928 585 766.5 585 C 822.5569072000001 585 868 592.835016 868 602.5 C 868 612.164984 822.5569072000001 620 766.5 620 C 710.4430928 620 665 612.164984 665 602.5 Z" fill-opacity="0.2"/></g><g><path fill="#ffffff" stroke="none" paint-order="stroke fill markers" d=" M 658 595.5 C 658 585.835016 703.4430928 578 759.5 578 C 815.5569072000001 578 861 585.835016 861 595.5 C 861 605.164984 815.5569072000001 613 759.5 613 C 703.4430928 613 658 605.164984 658 595.5 Z"/></g><g><path fill="none" stroke="#000000" paint-order="fill stroke markers" d=" M 658 595.5 C 658 585.835016 703.4430928 578 759.5 578 C 815.5569072000001 578 861 585.835016 861 595.5 C 861 605.164984 815.5569072000001 613 759.5 613 C 703.4430928 613 658 605.164984 658 595.5 Z" stroke-miterlimit="10" stroke-dasharray=""/></g><g><g><path fill="none" stroke="none"/><text fill="#000000" stroke="none" font-family="Arial" font-size="13px" font-style="normal" font-weight="bold" text-decoration="undefined" x="1069.5" y="642.5" text-anchor="middle" dominant-baseline="central" transform="matrix(1 0 0 1 -310 -46)">Chercher les profiles</text></g></g><g><path fill="#C0C0C0" stroke="none" paint-order="stroke fill markers" d=" M 441 658.5 C 441 648.835016 511.2912864 641 598 641 C 684.7087136 641 755 648.835016 755 658.5 C 755 668.164984 684.7087136 676 598 676 C 511.2912864 676 441 668.164984 441 658.5 Z" fill-opacity="0.2"/></g><g><path fill="#ffffff" stroke="none" paint-order="stroke fill markers" d=" M 434 651.5 C 434 641.835016 504.2912864 634 591 634 C 677.7087136 634 748 641.835016 748 651.5 C 748 661.164984 677.7087136 669 591 669 C 504.2912864 669 434 661.164984 434 651.5 Z"/></g><g><path fill="none" stroke="#000000" paint-order="fill stroke markers" d=" M 434 651.5 C 434 641.835016 504.2912864 634 591 634 C 677.7087136 634 748 641.835016 748 651.5 C 748 661.164984 677.7087136 669 591 669 C 504.2912864 669 434 661.164984 434 651.5 Z" stroke-miterlimit="10" stroke-dasharray=""/></g><g><g><path fill="none" stroke="none"/><text fill="#000000" stroke="none" font-family="Arial" font-size="13px" font-style="normal" font-weight="bold" text-decoration="undefined" x="901" y="698.5" text-anchor="middle" dominant-baseline="central" transform="matrix(1 0 0 1 -310 -46)">Chercher les profiles des equipes</text></g></g><g><path fill="#C0C0C0" stroke="none" paint-order="stroke fill markers" d=" M 817 658.5 C 817 648.835016 885.276568 641 969.5 641 C 1053.723432 641 1122 648.835016 1122 658.5 C 1122 668.164984 1053.723432 676 969.5 676 C 885.276568 676 817 668.164984 817 658.5 Z" fill-opacity="0.2"/></g><g><path fill="#ffffff" stroke="none" paint-order="stroke fill markers" d=" M 810 651.5 C 810 641.835016 878.276568 634 962.5 634 C 1046.723432 634 1115 641.835016 1115 651.5 C 1115 661.164984 1046.723432 669 962.5 669 C 878.276568 669 810 661.164984 810 651.5 Z"/></g><g><path fill="none" stroke="#000000" paint-order="fill stroke markers" d=" M 810 651.5 C 810 641.835016 878.276568 634 962.5 634 C 1046.723432 634 1115 641.835016 1115 651.5 C 1115 661.164984 1046.723432 669 962.5 669 C 878.276568 669 810 661.164984 810 651.5 Z" stroke-miterlimit="10" stroke-dasharray=""/></g><g><g><path fill="none" stroke="none"/><text fill="#000000" stroke="none" font-family="Arial" font-size="13px" font-style="normal" font-weight="bold" text-decoration="undefined" x="1272.5" y="698.5" text-anchor="middle" dominant-baseline="central" transform="matrix(1 0 0 1 -310 -46)">Chercher les profiles des joueurs</text></g></g><g><path fill="none" stroke="#000000" paint-order="fill stroke markers" d=" M 645 633 L 702 614" stroke-miterlimit="10" stroke-dasharray=""/></g><g><path fill="#FFFFFF" stroke="none" paint-order="stroke fill markers" d=" M 685.3800129900944 628.4144383099228 L 702 614 L 680.0553474061219 612.4404415580051"/></g><g><path fill="none" stroke="#000000" paint-order="fill stroke markers" d=" M 685.3800129900944 628.4144383099228 L 702 614 L 680.0553474061219 612.4404415580051 L 685.3800129900944 628.4144383099228" stroke-miterlimit="10" stroke-dasharray=""/></g><g><path fill="none" stroke="#000000" paint-order="fill stroke markers" d=" M 897 633 L 828 614" stroke-miterlimit="10" stroke-dasharray=""/></g><g><path fill="#FFFFFF" stroke="none" paint-order="stroke fill markers" d=" M 849.8310913371663 611.2790716605725 L 828 614 L 845.360899605145 627.5129258452814"/></g><g><path fill="none" stroke="#000000" paint-order="fill stroke markers" d=" M 849.8310913371663 611.2790716605725 L 828 614 L 845.360899605145 627.5129258452814 L 849.8310913371663 611.2790716605725" stroke-miterlimit="10" stroke-dasharray=""/></g><g><path fill="none" stroke="#000000" paint-order="fill stroke markers" d=" M 141 549 L 266 586 L 657 593" stroke-miterlimit="10" stroke-dasharray=""/></g><g><path fill="#C0C0C0" stroke="none" paint-order="stroke fill markers" d=" M 657 730.5 C 657 720.835016 711.3973968 713 778.5 713 C 845.6026032 713 900 720.835016 900 730.5 C 900 740.164984 845.6026032 748 778.5 748 C 711.3973968 748 657 740.164984 657 730.5 Z" fill-opacity="0.2"/></g><g><path fill="#ffffff" stroke="none" paint-order="stroke fill markers" d=" M 650 723.5 C 650 713.835016 704.3973968 706 771.5 706 C 838.6026032 706 893 713.835016 893 723.5 C 893 733.164984 838.6026032 741 771.5 741 C 704.3973968 741 650 733.164984 650 723.5 Z"/></g><g><path fill="none" stroke="#000000" paint-order="fill stroke markers" d=" M 650 723.5 C 650 713.835016 704.3973968 706 771.5 706 C 838.6026032 706 893 713.835016 893 723.5 C 893 733.164984 838.6026032 741 771.5 741 C 704.3973968 741 650 733.164984 650 723.5 Z" stroke-miterlimit="10" stroke-dasharray=""/></g><g><g><path fill="none" stroke="none"/><text fill="#000000" stroke="none" font-family="Arial" font-size="13px" font-style="normal" font-weight="bold" text-decoration="undefined" x="1081.5" y="770.5" text-anchor="middle" dominant-baseline="central" transform="matrix(1 0 0 1 -310 -46)">Consulter les publications</text></g></g><g><path fill="none" stroke="#000000" paint-order="fill stroke markers" d=" M 141 576 L 250 682 L 649 713" stroke-miterlimit="10" stroke-dasharray=""/></g><g><path fill="#C0C0C0" stroke="none" paint-order="stroke fill markers" d=" M 665 786.5 C 665 776.835016 718.5019663999999 769 784.5 769 C 850.4980336000001 769 904 776.835016 904 786.5 C 904 796.164984 850.4980336000001 804 784.5 804 C 718.5019663999999 804 665 796.164984 665 786.5 Z" fill-opacity="0.2"/></g><g><path fill="#ffffff" stroke="none" paint-order="stroke fill markers" d=" M 658 779.5 C 658 769.835016 711.5019664 762 777.5 762 C 843.4980336000001 762 897 769.835016 897 779.5 C 897 789.164984 843.4980336000001 797 777.5 797 C 711.5019664 797 658 789.164984 658 779.5 Z"/></g><g><path fill="none" stroke="#000000" paint-order="fill stroke markers" d=" M 658 779.5 C 658 769.835016 711.5019664 762 777.5 762 C 843.4980336000001 762 897 769.835016 897 779.5 C 897 789.164984 843.4980336000001 797 777.5 797 C 711.5019664 797 658 789.164984 658 779.5 Z" stroke-miterlimit="10" stroke-dasharray=""/></g><g><g><path fill="none" stroke="none"/><text fill="#000000" stroke="none" font-family="Arial" font-size="13px" font-style="normal" font-weight="bold" text-decoration="undefined" x="1087.5" y="826.5" text-anchor="middle" dominant-baseline="central" transform="matrix(1 0 0 1 -310 -46)">voté un matche non lancé</text></g></g><g><path fill="none" stroke="#000000" paint-order="fill stroke markers" d=" M 126 579 L 250 786 L 657 781" stroke-miterlimit="10" stroke-dasharray=""/></g><g><path fill="none" stroke="#000000" paint-order="fill stroke markers" d=" M 769 395 L 724 395" stroke-miterlimit="10" stroke-dasharray="3"/></g><g><path fill="none" stroke="#000000" paint-order="fill stroke markers" d=" M 734.1626748576241 390.790482243984 L 724 395 L 734.1626748576241 399.209517756016" stroke-miterlimit="10" stroke-dasharray=""/></g><g><rect fill="#ffffff" stroke="none" x="1029" y="465" width="53.49169921875" height="13" transform="matrix(1 0 0 1 -310 -46)"/></g><g><g><path fill="none" stroke="none"/><text fill="#000000" stroke="none" font-family="Arial" font-size="13px" font-style="normal" font-weight="normal" text-decoration="undefined" x="1055.745849609375" y="471.5" text-anchor="middle" dominant-baseline="central" transform="matrix(1 0 0 1 -310 -46)">«extend»</text></g></g><g><path fill="#C0C0C0" stroke="none" paint-order="stroke fill markers" d=" M 657 866.5 C 657 856.835016 710.725824 849 777 849 C 843.2741759999999 849 897 856.835016 897 866.5 C 897 876.164984 843.2741759999999 884 777 884 C 710.725824 884 657 876.164984 657 866.5 Z" fill-opacity="0.2"/></g><g><path fill="#ffffff" stroke="none" paint-order="stroke fill markers" d=" M 650 859.5 C 650 849.835016 703.725824 842 770 842 C 836.2741759999999 842 890 849.835016 890 859.5 C 890 869.164984 836.2741759999999 877 770 877 C 703.725824 877 650 869.164984 650 859.5 Z"/></g><g><path fill="none" stroke="#000000" paint-order="fill stroke markers" d=" M 650 859.5 C 650 849.835016 703.725824 842 770 842 C 836.2741759999999 842 890 849.835016 890 859.5 C 890 869.164984 836.2741759999999 877 770 877 C 703.725824 877 650 869.164984 650 859.5 Z" stroke-miterlimit="10" stroke-dasharray=""/></g><g><g><path fill="none" stroke="none"/><text fill="#000000" stroke="none" font-family="Arial" font-size="13px" font-style="normal" font-weight="bold" text-decoration="undefined" x="1080" y="906.5" text-anchor="middle" dominant-baseline="central" transform="matrix(1 0 0 1 -310 -46)">Créer Compte</text></g></g><g><path fill="none" stroke="#000000" paint-order="fill stroke markers" d=" M 121 579 L 250 858 L 649 859" stroke-miterlimit="10" stroke-dasharray=""/></g><g><path fill="#C0C0C0" stroke="none" paint-order="stroke fill markers" d=" M 673 962.5 C 673 952.835016 721.5770992 945 781.5 945 C 841.4229008 945 890 952.835016 890 962.5 C 890 972.164984 841.4229008 980 781.5 980 C 721.5770992 980 673 972.164984 673 962.5 Z" fill-opacity="0.2"/></g><g><path fill="#ffffff" stroke="none" paint-order="stroke fill markers" d=" M 666 955.5 C 666 945.835016 714.5770992 938 774.5 938 C 834.4229008 938 883 945.835016 883 955.5 C 883 965.164984 834.4229008 973 774.5 973 C 714.5770992 973 666 965.164984 666 955.5 Z"/></g><g><path fill="none" stroke="#000000" paint-order="fill stroke markers" d=" M 666 955.5 C 666 945.835016 714.5770992 938 774.5 938 C 834.4229008 938 883 945.835016 883 955.5 C 883 965.164984 834.4229008 973 774.5 973 C 714.5770992 973 666 965.164984 666 955.5 Z" stroke-miterlimit="10" stroke-dasharray=""/></g><g><g><path fill="none" stroke="none"/><text fill="#000000" stroke="none" font-family="Arial" font-size="13px" font-style="normal" font-weight="bold" text-decoration="undefined" x="1084.5" y="1002.5" text-anchor="middle" dominant-baseline="central" transform="matrix(1 0 0 1 -310 -46)">Suivie profile</text></g></g><g><path fill="#C0C0C0" stroke="none" paint-order="stroke fill markers" d=" M 521 1026.5 C 521 1016.835016 567.5623808 1009 625 1009 C 682.4376192 1009 729 1016.835016 729 1026.5 C 729 1036.164984 682.4376192 1044 625 1044 C 567.5623808 1044 521 1036.164984 521 1026.5 Z" fill-opacity="0.2"/></g><g><path fill="#ffffff" stroke="none" paint-order="stroke fill markers" d=" M 514 1019.5 C 514 1009.835016 560.5623808 1002 618 1002 C 675.4376192 1002 722 1009.835016 722 1019.5 C 722 1029.164984 675.4376192 1037 618 1037 C 560.5623808 1037 514 1029.164984 514 1019.5 Z"/></g><g><path fill="none" stroke="#000000" paint-order="fill stroke markers" d=" M 514 1019.5 C 514 1009.835016 560.5623808 1002 618 1002 C 675.4376192 1002 722 1009.835016 722 1019.5 C 722 1029.164984 675.4376192 1037 618 1037 C 560.5623808 1037 514 1029.164984 514 1019.5 Z" stroke-miterlimit="10" stroke-dasharray=""/></g><g><g><path fill="none" stroke="none"/><text fill="#000000" stroke="none" font-family="Arial" font-size="13px" font-style="normal" font-weight="bold" text-decoration="undefined" x="928" y="1066.5" text-anchor="middle" dominant-baseline="central" transform="matrix(1 0 0 1 -310 -46)">Suivie profile joueur</text></g></g><g><path fill="#C0C0C0" stroke="none" paint-order="stroke fill markers" d=" M 785 1034.5 C 785 1024.835016 828.2045168 1017 881.5 1017 C 934.7954832 1017 978 1024.835016 978 1034.5 C 978 1044.164984 934.7954832 1052 881.5 1052 C 828.2045168 1052 785 1044.164984 785 1034.5 Z" fill-opacity="0.2"/></g><g><path fill="#ffffff" stroke="none" paint-order="stroke fill markers" d=" M 778 1027.5 C 778 1017.835016 821.2045168 1010 874.5 1010 C 927.7954832 1010 971 1017.835016 971 1027.5 C 971 1037.164984 927.7954832 1045 874.5 1045 C 821.2045168 1045 778 1037.164984 778 1027.5 Z"/></g><g><path fill="none" stroke="#000000" paint-order="fill stroke markers" d=" M 778 1027.5 C 778 1017.835016 821.2045168 1010 874.5 1010 C 927.7954832 1010 971 1017.835016 971 1027.5 C 971 1037.164984 927.7954832 1045 874.5 1045 C 821.2045168 1045 778 1037.164984 778 1027.5 Z" stroke-miterlimit="10" stroke-dasharray=""/></g><g><g><path fill="none" stroke="none"/><text fill="#000000" stroke="none" font-family="Arial" font-size="13px" font-style="normal" font-weight="bold" text-decoration="undefined" x="1184.5" y="1074.5" text-anchor="middle" dominant-baseline="central" transform="matrix(1 0 0 1 -310 -46)">Suivie profile equipe</text></g></g><g><path fill="none" stroke="#000000" paint-order="fill stroke markers" d=" M 662 1001 L 728 974" stroke-miterlimit="10" stroke-dasharray=""/></g><g><path fill="#FFFFFF" stroke="none" paint-order="stroke fill markers" d=" M 712.3756578113787 989.4880576952976 L 728 974 L 706.0002110630934 973.9036323106002"/></g><g><path fill="none" stroke="#000000" paint-order="fill stroke markers" d=" M 712.3756578113787 989.4880576952976 L 728 974 L 706.0002110630934 973.9036323106002 L 712.3756578113787 989.4880576952976" stroke-miterlimit="10" stroke-dasharray=""/></g><g><path fill="none" stroke="#000000" paint-order="fill stroke markers" d=" M 849 1009 L 800 974" stroke-miterlimit="10" stroke-dasharray=""/></g><g><path fill="#FFFFFF" stroke="none" paint-order="stroke fill markers" d=" M 821.4328823711503 978.9630185637814 L 800 974 L 811.6459523834094 992.6647205466184"/></g><g><path fill="none" stroke="#000000" paint-order="fill stroke markers" d=" M 821.4328823711503 978.9630185637814 L 800 974 L 811.6459523834094 992.6647205466184 L 821.4328823711503 978.9630185637814" stroke-miterlimit="10" stroke-dasharray=""/></g><g><path fill="none" stroke="#000000" paint-order="fill stroke markers" d=" M 117 579 L 250 954 L 665 955" stroke-miterlimit="10" stroke-dasharray=""/></g><g><path fill="#C0C0C0" stroke="none" paint-order="stroke fill markers" d=" M 1049 1042.5 C 1049 1032.835016 1088.3989376 1025 1137 1025 C 1185.6010624 1025 1225 1032.835016 1225 1042.5 C 1225 1052.164984 1185.6010624 1060 1137 1060 C 1088.3989376 1060 1049 1052.164984 1049 1042.5 Z" fill-opacity="0.2"/></g><g><path fill="#ffffff" stroke="none" paint-order="stroke fill markers" d=" M 1042 1035.5 C 1042 1025.835016 1081.3989376 1018 1130 1018 C 1178.6010624 1018 1218 1025.835016 1218 1035.5 C 1218 1045.164984 1178.6010624 1053 1130 1053 C 1081.3989376 1053 1042 1045.164984 1042 1035.5 Z"/></g><g><path fill="none" stroke="#000000" paint-order="fill stroke markers" d=" M 1042 1035.5 C 1042 1025.835016 1081.3989376 1018 1130 1018 C 1178.6010624 1018 1218 1025.835016 1218 1035.5 C 1218 1045.164984 1178.6010624 1053 1130 1053 C 1081.3989376 1053 1042 1045.164984 1042 1035.5 Z" stroke-miterlimit="10" stroke-dasharray=""/></g><g><g><path fill="none" stroke="none"/><text fill="#000000" stroke="none" font-family="Arial" font-size="13px" font-style="normal" font-weight="bold" text-decoration="undefined" x="1440" y="1082.5" text-anchor="middle" dominant-baseline="central" transform="matrix(1 0 0 1 -310 -46)">S'authentifier</text></g></g><g><path fill="none" stroke="#000000" paint-order="fill stroke markers" d=" M 859 974 L 1050 1017" stroke-miterlimit="10" stroke-dasharray="3"/></g><g><path fill="none" stroke="#000000" paint-order="fill stroke markers" d=" M 1039.1609211487794 1018.8746652119842 L 1050 1017 L 1041.0100253586377 1010.6612023263349" stroke-miterlimit="10" stroke-dasharray=""/></g><g><rect fill="#ffffff" stroke="none" x="1243" y="1005" width="55.65625" height="13" transform="matrix(1 0 0 1 -310 -46)"/></g><g><g><path fill="none" stroke="none"/><text fill="#000000" stroke="none" font-family="Arial" font-size="13px" font-style="normal" font-weight="normal" text-decoration="undefined" x="1270.828125" y="1011.5" text-anchor="middle" dominant-baseline="central" transform="matrix(1 0 0 1 -310 -46)">«include»</text></g></g><g><path fill="#C0C0C0" stroke="none" paint-order="stroke fill markers" d=" M 625 1106.5 C 625 1096.835016 685.8892672 1089 761 1089 C 836.1107328 1089 897 1096.835016 897 1106.5 C 897 1116.164984 836.1107328 1124 761 1124 C 685.8892672 1124 625 1116.164984 625 1106.5 Z" fill-opacity="0.2"/></g><g><path fill="#ffffff" stroke="none" paint-order="stroke fill markers" d=" M 618 1099.5 C 618 1089.835016 678.8892672 1082 754 1082 C 829.1107328 1082 890 1089.835016 890 1099.5 C 890 1109.164984 829.1107328 1117 754 1117 C 678.8892672 1117 618 1109.164984 618 1099.5 Z"/></g><g><path fill="none" stroke="#000000" paint-order="fill stroke markers" d=" M 618 1099.5 C 618 1089.835016 678.8892672 1082 754 1082 C 829.1107328 1082 890 1089.835016 890 1099.5 C 890 1109.164984 829.1107328 1117 754 1117 C 678.8892672 1117 618 1109.164984 618 1099.5 Z" stroke-miterlimit="10" stroke-dasharray=""/></g><g><g><path fill="none" stroke="none"/><text fill="#000000" stroke="none" font-family="Arial" font-size="13px" font-style="normal" font-weight="bold" text-decoration="undefined" x="1064" y="1146.5" text-anchor="middle" dominant-baseline="central" transform="matrix(1 0 0 1 -310 -46)">Postuler au poste publicateur</text></g></g><g><path fill="none" stroke="#000000" paint-order="fill stroke markers" d=" M 114 579 L 266 1090 L 617 1096" stroke-miterlimit="10" stroke-dasharray=""/></g><g><path fill="none" stroke="#000000" paint-order="fill stroke markers" d=" M 891 1103 L 994 1106 L 1094 1054" stroke-miterlimit="10" stroke-dasharray="3"/></g><g><path fill="none" stroke="#000000" paint-order="fill stroke markers" d=" M 1086.9255766575125 1062.4233327354004 L 1094 1054 L 1083.0414315841504 1054.953822978935" stroke-miterlimit="10" stroke-dasharray=""/></g><g><rect fill="#ffffff" stroke="none" x="1263" y="1119" width="55.65625" height="13" transform="matrix(1 0 0 1 -310 -46)"/></g><g><g><path fill="none" stroke="none"/><text fill="#000000" stroke="none" font-family="Arial" font-size="13px" font-style="normal" font-weight="normal" text-decoration="undefined" x="1290.828125" y="1125.5" text-anchor="middle" dominant-baseline="central" transform="matrix(1 0 0 1 -310 -46)">«include»</text></g></g><g><path fill="#C0C0C0" stroke="none" paint-order="stroke fill markers" d=" M 657 1186.5 C 657 1176.835016 708.487248 1169 772 1169 C 835.5127520000001 1169 887 1176.835016 887 1186.5 C 887 1196.164984 835.5127520000001 1204 772 1204 C 708.487248 1204 657 1196.164984 657 1186.5 Z" fill-opacity="0.2"/></g><g><path fill="#ffffff" stroke="none" paint-order="stroke fill markers" d=" M 650 1179.5 C 650 1169.835016 701.487248 1162 765 1162 C 828.5127520000001 1162 880 1169.835016 880 1179.5 C 880 1189.164984 828.5127520000001 1197 765 1197 C 701.487248 1197 650 1189.164984 650 1179.5 Z"/></g><g><path fill="none" stroke="#000000" paint-order="fill stroke markers" d=" M 650 1179.5 C 650 1169.835016 701.487248 1162 765 1162 C 828.5127520000001 1162 880 1169.835016 880 1179.5 C 880 1189.164984 828.5127520000001 1197 765 1197 C 701.487248 1197 650 1189.164984 650 1179.5 Z" stroke-miterlimit="10" stroke-dasharray=""/></g><g><g><path fill="none" stroke="none"/><text fill="#000000" stroke="none" font-family="Arial" font-size="13px" font-style="normal" font-weight="bold" text-decoration="undefined" x="1075" y="1226.5" text-anchor="middle" dominant-baseline="central" transform="matrix(1 0 0 1 -310 -46)">Postuler au poste Admin</text></g></g><g><path fill="none" stroke="#000000" paint-order="fill stroke markers" d=" M 881 1179 L 1050 1178 L 1119 1054" stroke-miterlimit="10" stroke-dasharray="3"/></g><g><path fill="none" stroke="#000000" paint-order="fill stroke markers" d=" M 1117.7368697888774 1064.9272367078668 L 1119 1054 L 1110.3801088864304 1060.8335552379567" stroke-miterlimit="10" stroke-dasharray=""/></g><g><rect fill="#ffffff" stroke="none" x="1306" y="1203" width="55.65625" height="13" transform="matrix(1 0 0 1 -310 -46)"/></g><g><g><path fill="none" stroke="none"/><text fill="#000000" stroke="none" font-family="Arial" font-size="13px" font-style="normal" font-weight="normal" text-decoration="undefined" x="1333.828125" y="1209.5" text-anchor="middle" dominant-baseline="central" transform="matrix(1 0 0 1 -310 -46)">«include»</text></g></g><g><path fill="none" stroke="#000000" paint-order="fill stroke markers" d=" M 108 579 L 202 1186 L 649 1180" stroke-miterlimit="10" stroke-dasharray=""/></g></g></svg>